<svg xmlns="http://www.w3.org/2000/svg" version="1.1" xmlns:xlink="http://www.w3.org/1999/xlink" xmlns:svgjs="http://svgjs.com/svgjs" width="500" height="500"><svg xmlns="http://www.w3.org/2000/svg" xmlns:xlink="http://www.w3.org/1999/xlink" width="500" zoomAndPan="magnify" viewBox="0 0 375 374.999991" height="500" preserveAspectRatio="xMidYMid meet" version="1.0"><defs><clipPath id="SvgjsClipPath1037"><path d="M 0 0 L 374.613281 0 L 374.613281 374.613281 L 0 374.613281 Z M 0 0 " clip-rule="nonzero"></path></clipPath><clipPath id="SvgjsClipPath1036"><path d="M 22.953125 23 L 352.160156 23 L 352.160156 352.160156 L 22.953125 352.160156 Z M 22.953125 23 " clip-rule="nonzero"></path></clipPath><clipPath id="SvgjsClipPath1035"><path d="M 64.976562 254.152344 L 135.832031 254.152344 L 135.832031 325.007812 L 64.976562 325.007812 Z M 64.976562 254.152344 " clip-rule="nonzero"></path></clipPath><clipPath id="SvgjsClipPath1034"><path d="M 100.402344 254.152344 C 80.835938 254.152344 64.976562 270.015625 64.976562 289.582031 C 64.976562 309.144531 80.835938 325.007812 100.402344 325.007812 C 119.96875 325.007812 135.832031 309.144531 135.832031 289.582031 C 135.832031 270.015625 119.96875 254.152344 100.402344 254.152344 " clip-rule="nonzero"></path></clipPath><clipPath id="SvgjsClipPath1033"><path d="M 98 254.152344 L 135.925781 254.152344 L 135.925781 292 L 98 292 Z M 98 254.152344 " clip-rule="nonzero"></path></clipPath><clipPath id="SvgjsClipPath1032"><path d="M 64.976562 288 L 102 288 L 102 325.101562 L 64.976562 325.101562 Z M 64.976562 288 " clip-rule="nonzero"></path></clipPath><clipPath id="SvgjsClipPath1031"><path d="M 64.976562 254.152344 L 135.925781 254.152344 L 135.925781 325.101562 L 64.976562 325.101562 Z M 64.976562 254.152344 " clip-rule="nonzero"></path></clipPath><clipPath id="SvgjsClipPath1030"><path d="M 64.976562 254.152344 L 135.925781 254.152344 L 135.925781 325.101562 L 64.976562 325.101562 Z M 64.976562 254.152344 " clip-rule="nonzero"></path></clipPath><clipPath id="SvgjsClipPath1029"><path d="M 238.105469 254.152344 L 308.960938 254.152344 L 308.960938 325.007812 L 238.105469 325.007812 Z M 238.105469 254.152344 " clip-rule="nonzero"></path></clipPath><clipPath id="SvgjsClipPath1028"><path d="M 273.535156 254.152344 C 253.96875 254.152344 238.105469 270.015625 238.105469 289.582031 C 238.105469 309.144531 253.96875 325.007812 273.535156 325.007812 C 293.101562 325.007812 308.960938 309.144531 308.960938 289.582031 C 308.960938 270.015625 293.101562 254.152344 273.535156 254.152344 " clip-rule="nonzero"></path></clipPath><clipPath id="SvgjsClipPath1027"><path d="M 272 254.152344 L 309.054688 254.152344 L 309.054688 292 L 272 292 Z M 272 254.152344 " clip-rule="nonzero"></path></clipPath><clipPath id="SvgjsClipPath1026"><path d="M 238.105469 288 L 276 288 L 276 325.101562 L 238.105469 325.101562 Z M 238.105469 288 " clip-rule="nonzero"></path></clipPath><clipPath id="SvgjsClipPath1025"><path d="M 238.105469 254.152344 L 309.054688 254.152344 L 309.054688 325.101562 L 238.105469 325.101562 Z M 238.105469 254.152344 " clip-rule="nonzero"></path></clipPath><clipPath id="SvgjsClipPath1024"><path d="M 238.105469 254.152344 L 309.054688 254.152344 L 309.054688 325.101562 L 238.105469 325.101562 Z M 238.105469 254.152344 " clip-rule="nonzero"></path></clipPath><clipPath id="SvgjsClipPath1023"><path d="M 64.976562 156.96875 L 135.832031 156.96875 L 135.832031 227.824219 L 64.976562 227.824219 Z M 64.976562 156.96875 " clip-rule="nonzero"></path></clipPath><clipPath id="SvgjsClipPath1022"><path d="M 100.402344 156.96875 C 80.835938 156.96875 64.976562 172.832031 64.976562 192.398438 C 64.976562 211.964844 80.835938 227.824219 100.402344 227.824219 C 119.96875 227.824219 135.832031 211.964844 135.832031 192.398438 C 135.832031 172.832031 119.96875 156.96875 100.402344 156.96875 " clip-rule="nonzero"></path></clipPath><clipPath id="SvgjsClipPath1021"><path d="M 98 156.96875 L 135.925781 156.96875 L 135.925781 194 L 98 194 Z M 98 156.96875 " clip-rule="nonzero"></path></clipPath><clipPath id="SvgjsClipPath1020"><path d="M 64.976562 190 L 102 190 L 102 227.917969 L 64.976562 227.917969 Z M 64.976562 190 " clip-rule="nonzero"></path></clipPath><clipPath id="SvgjsClipPath1019"><path d="M 64.976562 156.96875 L 135.925781 156.96875 L 135.925781 227.917969 L 64.976562 227.917969 Z M 64.976562 156.96875 " clip-rule="nonzero"></path></clipPath><clipPath id="SvgjsClipPath1018"><path d="M 64.976562 156.96875 L 135.925781 156.96875 L 135.925781 227.917969 L 64.976562 227.917969 Z M 64.976562 156.96875 " clip-rule="nonzero"></path></clipPath><clipPath id="SvgjsClipPath1017"><path d="M 238.105469 156.96875 L 308.960938 156.96875 L 308.960938 227.824219 L 238.105469 227.824219 Z M 238.105469 156.96875 " clip-rule="nonzero"></path></clipPath><clipPath id="SvgjsClipPath1016"><path d="M 273.535156 156.96875 C 253.96875 156.96875 238.105469 172.832031 238.105469 192.398438 C 238.105469 211.964844 253.96875 227.824219 273.535156 227.824219 C 293.101562 227.824219 308.960938 211.964844 308.960938 192.398438 C 308.960938 172.832031 293.101562 156.96875 273.535156 156.96875 " clip-rule="nonzero"></path></clipPath><clipPath id="SvgjsClipPath1015"><path d="M 272 156.96875 L 309.054688 156.96875 L 309.054688 194 L 272 194 Z M 272 156.96875 " clip-rule="nonzero"></path></clipPath><clipPath id="SvgjsClipPath1014"><path d="M 238.105469 190 L 276 190 L 276 227.917969 L 238.105469 227.917969 Z M 238.105469 190 " clip-rule="nonzero"></path></clipPath><clipPath id="SvgjsClipPath1013"><path d="M 238.105469 156.96875 L 309.054688 156.96875 L 309.054688 227.917969 L 238.105469 227.917969 Z M 238.105469 156.96875 " clip-rule="nonzero"></path></clipPath><clipPath id="SvgjsClipPath1012"><path d="M 238.105469 156.96875 L 309.054688 156.96875 L 309.054688 227.917969 L 238.105469 227.917969 Z M 238.105469 156.96875 " clip-rule="nonzero"></path></clipPath><clipPath id="SvgjsClipPath1011"><path d="M 238.105469 58.808594 L 308.960938 58.808594 L 308.960938 129.664062 L 238.105469 129.664062 Z M 238.105469 58.808594 " clip-rule="nonzero"></path></clipPath><clipPath id="SvgjsClipPath1010"><path d="M 273.535156 58.808594 C 253.96875 58.808594 238.105469 74.667969 238.105469 94.234375 C 238.105469 113.800781 253.96875 129.664062 273.535156 129.664062 C 293.101562 129.664062 308.960938 113.800781 308.960938 94.234375 C 308.960938 74.667969 293.101562 58.808594 273.535156 58.808594 " clip-rule="nonzero"></path></clipPath><clipPath id="SvgjsClipPath1009"><path d="M 272 58.808594 L 309.054688 58.808594 L 309.054688 96 L 272 96 Z M 272 58.808594 " clip-rule="nonzero"></path></clipPath><clipPath id="SvgjsClipPath1008"><path d="M 238.105469 92 L 276 92 L 276 129.757812 L 238.105469 129.757812 Z M 238.105469 92 " clip-rule="nonzero"></path></clipPath><clipPath id="SvgjsClipPath1007"><path d="M 238.105469 58.808594 L 309.054688 58.808594 L 309.054688 129.757812 L 238.105469 129.757812 Z M 238.105469 58.808594 " clip-rule="nonzero"></path></clipPath><clipPath id="SvgjsClipPath1006"><path d="M 238.105469 58.808594 L 309.054688 58.808594 L 309.054688 129.757812 L 238.105469 129.757812 Z M 238.105469 58.808594 " clip-rule="nonzero"></path></clipPath><clipPath id="SvgjsClipPath1005"><path d="M 64.976562 58.808594 L 135.832031 58.808594 L 135.832031 129.664062 L 64.976562 129.664062 Z M 64.976562 58.808594 " clip-rule="nonzero"></path></clipPath><clipPath id="SvgjsClipPath1004"><path d="M 100.402344 58.808594 C 80.835938 58.808594 64.976562 74.667969 64.976562 94.234375 C 64.976562 113.800781 80.835938 129.664062 100.402344 129.664062 C 119.96875 129.664062 135.832031 113.800781 135.832031 94.234375 C 135.832031 74.667969 119.96875 58.808594 100.402344 58.808594 " clip-rule="nonzero"></path></clipPath><clipPath id="SvgjsClipPath1003"><path d="M 98 58.808594 L 135.925781 58.808594 L 135.925781 96 L 98 96 Z M 98 58.808594 " clip-rule="nonzero"></path></clipPath><clipPath id="SvgjsClipPath1002"><path d="M 64.976562 92 L 102 92 L 102 129.757812 L 64.976562 129.757812 Z M 64.976562 92 " clip-rule="nonzero"></path></clipPath><clipPath id="SvgjsClipPath1001"><path d="M 64.976562 58.808594 L 135.925781 58.808594 L 135.925781 129.757812 L 64.976562 129.757812 Z M 64.976562 58.808594 " clip-rule="nonzero"></path></clipPath><clipPath id="SvgjsClipPath1000"><path d="M 64.976562 58.808594 L 135.925781 58.808594 L 135.925781 129.757812 L 64.976562 129.757812 Z M 64.976562 58.808594 " clip-rule="nonzero"></path></clipPath></defs><g clip-path="url(#2b823e74e3)"><path fill="#1b7cc4" d="M 273.203125 0.0742188 L 101.410156 0.0742188 C 45.507812 0.0742188 0 45.507812 0 101.480469 L 0 273.128906 C 0 329.03125 45.507812 374.539062 101.410156 374.539062 L 273.203125 374.539062 C 329.101562 374.539062 374.613281 329.03125 374.613281 273.128906 L 374.613281 101.480469 C 374.613281 45.507812 329.101562 0.0742188 273.203125 0.0742188 Z M 273.203125 0.0742188 " fill-opacity="1" fill-rule="nonzero"></path></g><g clip-path="url(#4390eebbdd)"><path fill="#ffffff" d="M 263.042969 23.019531 L 112.070312 23.019531 C 62.949219 23.019531 22.953125 62.949219 22.953125 112.136719 L 22.953125 262.976562 C 22.953125 312.101562 62.949219 352.09375 112.070312 352.09375 L 263.042969 352.09375 C 312.167969 352.09375 352.160156 312.101562 352.160156 262.976562 L 352.160156 112.136719 C 352.160156 62.949219 312.167969 23.019531 263.042969 23.019531 Z M 263.042969 23.019531 " fill-opacity="1" fill-rule="nonzero"></path></g><g clip-path="url(#d0bfaca8c4)"><g clip-path="url(#36a6009163)"><path fill="#1b7cc4" d="M 64.976562 254.152344 L 135.832031 254.152344 L 135.832031 325.007812 L 64.976562 325.007812 Z M 64.976562 254.152344 " fill-opacity="1" fill-rule="nonzero"></path></g></g><g clip-path="url(#d40a8cb568)"><path fill="#ffffff" d="M 134.382812 291.167969 C 114.824219 291.167969 98.910156 275.253906 98.910156 255.695312 C 98.910156 254.84375 99.597656 254.152344 100.449219 254.152344 C 101.300781 254.152344 101.992188 254.84375 101.992188 255.695312 C 101.992188 273.554688 116.523438 288.085938 134.382812 288.085938 C 135.234375 288.085938 135.925781 288.777344 135.925781 289.628906 C 135.925781 290.480469 135.234375 291.167969 134.382812 291.167969 Z M 134.382812 291.167969 " fill-opacity="1" fill-rule="nonzero"></path></g><g clip-path="url(#927cc7aa72)"><path fill="#ffffff" d="M 100.449219 325.101562 C 99.597656 325.101562 98.910156 324.410156 98.910156 323.558594 C 98.910156 305.699219 84.378906 291.167969 66.519531 291.167969 C 65.667969 291.167969 64.976562 290.480469 64.976562 289.628906 C 64.976562 288.777344 65.667969 288.085938 66.519531 288.085938 C 86.078125 288.085938 101.992188 304 101.992188 323.558594 C 101.992188 324.410156 101.300781 325.101562 100.449219 325.101562 Z M 100.449219 325.101562 " fill-opacity="1" fill-rule="nonzero"></path></g><g clip-path="url(#8bcc07b237)"><path fill="#ffffff" d="M 100.449219 325.101562 C 80.890625 325.101562 64.976562 309.1875 64.976562 289.628906 C 64.976562 270.066406 80.890625 254.152344 100.449219 254.152344 C 120.011719 254.152344 135.925781 270.066406 135.925781 289.628906 C 135.925781 309.1875 120.011719 325.101562 100.449219 325.101562 Z M 100.449219 257.238281 C 82.589844 257.238281 68.0625 271.765625 68.0625 289.628906 C 68.0625 307.488281 82.589844 322.015625 100.449219 322.015625 C 118.3125 322.015625 132.839844 307.488281 132.839844 289.628906 C 132.839844 271.765625 118.3125 257.238281 100.449219 257.238281 Z M 100.449219 257.238281 " fill-opacity="1" fill-rule="nonzero"></path></g><path fill="#ffffff" d="M 72.6875 295.796875 C 71.835938 295.796875 71.144531 295.105469 71.144531 294.253906 L 71.144531 286.542969 C 71.144531 285.691406 71.835938 285 72.6875 285 C 73.539062 285 74.230469 285.691406 74.230469 286.542969 L 74.230469 294.253906 C 74.230469 295.105469 73.539062 295.796875 72.6875 295.796875 Z M 72.6875 295.796875 " fill-opacity="1" fill-rule="nonzero"></path><path fill="#ffffff" d="M 88.113281 303.507812 C 87.71875 303.507812 87.320312 303.359375 87.019531 303.058594 C 86.417969 302.457031 86.417969 301.480469 87.019531 300.878906 L 93.1875 294.707031 C 93.789062 294.105469 94.769531 294.105469 95.371094 294.707031 C 95.972656 295.308594 95.972656 296.289062 95.371094 296.890625 L 89.199219 303.058594 C 88.902344 303.359375 88.507812 303.507812 88.113281 303.507812 Z M 88.113281 303.507812 " fill-opacity="1" fill-rule="nonzero"></path><path fill="#ffffff" d="M 103.535156 318.933594 L 95.824219 318.933594 C 94.972656 318.933594 94.28125 318.242188 94.28125 317.390625 C 94.28125 316.539062 94.972656 315.847656 95.824219 315.847656 L 103.535156 315.847656 C 104.386719 315.847656 105.078125 316.539062 105.078125 317.390625 C 105.078125 318.242188 104.386719 318.933594 103.535156 318.933594 Z M 103.535156 318.933594 " fill-opacity="1" fill-rule="nonzero"></path><path fill="#ffffff" d="M 80.398438 298.882812 C 80.132812 298.882812 79.855469 298.8125 79.605469 298.664062 C 78.875 298.222656 78.640625 297.277344 79.078125 296.546875 L 83.707031 288.835938 C 84.148438 288.101562 85.09375 287.867188 85.824219 288.308594 C 86.554688 288.746094 86.789062 289.691406 86.351562 290.421875 L 81.722656 298.136719 C 81.433594 298.613281 80.921875 298.882812 80.398438 298.882812 Z M 80.398438 298.882812 " fill-opacity="1" fill-rule="nonzero"></path><path fill="#ffffff" d="M 92.738281 311.21875 C 92.214844 311.21875 91.707031 310.957031 91.414062 310.472656 C 90.976562 309.738281 91.214844 308.792969 91.941406 308.355469 L 99.65625 303.726562 C 100.386719 303.289062 101.332031 303.527344 101.769531 304.253906 C 102.210938 304.988281 101.972656 305.933594 101.242188 306.371094 L 93.53125 311 C 93.285156 311.148438 93.011719 311.21875 92.738281 311.21875 Z M 92.738281 311.21875 " fill-opacity="1" fill-rule="nonzero"></path><path fill="#ffffff" d="M 128.214844 294.253906 C 127.363281 294.253906 126.671875 293.5625 126.671875 292.710938 L 126.671875 285 C 126.671875 284.148438 127.363281 283.457031 128.214844 283.457031 C 129.066406 283.457031 129.757812 284.148438 129.757812 285 L 129.757812 292.710938 C 129.757812 293.5625 129.066406 294.253906 128.214844 294.253906 Z M 128.214844 294.253906 " fill-opacity="1" fill-rule="nonzero"></path><path fill="#ffffff" d="M 106.621094 285 C 106.226562 285 105.832031 284.847656 105.527344 284.550781 C 104.925781 283.949219 104.925781 282.96875 105.527344 282.367188 L 111.699219 276.199219 C 112.300781 275.597656 113.277344 275.597656 113.878906 276.199219 C 114.480469 276.800781 114.480469 277.777344 113.878906 278.378906 L 107.710938 284.550781 C 107.410156 284.847656 107.015625 285 106.621094 285 Z M 106.621094 285 " fill-opacity="1" fill-rule="nonzero"></path><path fill="#ffffff" d="M 105.078125 263.40625 L 97.367188 263.40625 C 96.515625 263.40625 95.824219 262.714844 95.824219 261.863281 C 95.824219 261.011719 96.515625 260.320312 97.367188 260.320312 L 105.078125 260.320312 C 105.929688 260.320312 106.621094 261.011719 106.621094 261.863281 C 106.621094 262.71875 105.929688 263.40625 105.078125 263.40625 Z M 105.078125 263.40625 " fill-opacity="1" fill-rule="nonzero"></path><path fill="#ffffff" d="M 115.875 291.167969 C 115.605469 291.167969 115.332031 291.097656 115.082031 290.949219 C 114.351562 290.511719 114.117188 289.566406 114.554688 288.835938 L 119.179688 281.121094 C 119.621094 280.390625 120.5625 280.15625 121.296875 280.59375 C 122.027344 281.035156 122.261719 281.980469 121.824219 282.710938 L 117.199219 290.421875 C 116.90625 290.902344 116.394531 291.167969 115.875 291.167969 Z M 115.875 291.167969 " fill-opacity="1" fill-rule="nonzero"></path><path fill="#ffffff" d="M 100.449219 275.746094 C 99.925781 275.746094 99.417969 275.480469 99.128906 274.996094 C 98.6875 274.265625 98.925781 273.316406 99.65625 272.878906 L 107.367188 268.253906 C 108.097656 267.8125 109.046875 268.050781 109.484375 268.78125 C 109.921875 269.511719 109.683594 270.457031 108.957031 270.898438 L 101.242188 275.523438 C 100.996094 275.675781 100.722656 275.746094 100.449219 275.746094 Z M 100.449219 275.746094 " fill-opacity="1" fill-rule="nonzero"></path><g clip-path="url(#bd9a5ce0ba)"><path fill="#ffffff" d="M 100.449219 325.101562 C 80.851562 325.101562 64.976562 309.117188 64.976562 289.628906 C 64.976562 270.136719 80.851562 254.152344 100.449219 254.152344 C 120.050781 254.152344 135.925781 270.027344 135.925781 289.628906 C 135.925781 309.226562 119.941406 325.101562 100.449219 325.101562 Z M 100.449219 256.34375 C 82.054688 256.34375 67.164062 271.234375 67.164062 289.628906 C 67.164062 308.023438 82.054688 322.914062 100.449219 322.914062 C 118.84375 322.914062 133.734375 308.023438 133.734375 289.628906 C 133.734375 271.234375 118.734375 256.34375 100.449219 256.34375 Z M 100.449219 256.34375 " fill-opacity="1" fill-rule="nonzero"></path></g><g clip-path="url(#a67293b61b)"><g clip-path="url(#8e575bb7bd)"><path fill="#1b7cc4" d="M 238.105469 254.152344 L 308.960938 254.152344 L 308.960938 325.007812 L 238.105469 325.007812 Z M 238.105469 254.152344 " fill-opacity="1" fill-rule="nonzero"></path></g></g><g clip-path="url(#27d9ae4c71)"><path fill="#ffffff" d="M 307.511719 291.167969 C 287.953125 291.167969 272.039062 275.253906 272.039062 255.695312 C 272.039062 254.84375 272.730469 254.152344 273.582031 254.152344 C 274.433594 254.152344 275.125 254.84375 275.125 255.695312 C 275.125 273.554688 289.652344 288.085938 307.511719 288.085938 C 308.363281 288.085938 309.054688 288.777344 309.054688 289.628906 C 309.054688 290.480469 308.363281 291.167969 307.511719 291.167969 Z M 307.511719 291.167969 " fill-opacity="1" fill-rule="nonzero"></path></g><g clip-path="url(#399d91d0e4)"><path fill="#ffffff" d="M 273.582031 325.101562 C 272.730469 325.101562 272.039062 324.410156 272.039062 323.558594 C 272.039062 305.699219 257.507812 291.167969 239.648438 291.167969 C 238.796875 291.167969 238.105469 290.480469 238.105469 289.628906 C 238.105469 288.777344 238.796875 288.085938 239.648438 288.085938 C 259.210938 288.085938 275.125 304 275.125 323.558594 C 275.125 324.410156 274.433594 325.101562 273.582031 325.101562 Z M 273.582031 325.101562 " fill-opacity="1" fill-rule="nonzero"></path></g><g clip-path="url(#6716581cf9)"><path fill="#ffffff" d="M 273.582031 325.101562 C 254.019531 325.101562 238.105469 309.1875 238.105469 289.628906 C 238.105469 270.066406 254.019531 254.152344 273.582031 254.152344 C 293.140625 254.152344 309.054688 270.066406 309.054688 289.628906 C 309.054688 309.1875 293.140625 325.101562 273.582031 325.101562 Z M 273.582031 257.238281 C 255.71875 257.238281 241.191406 271.765625 241.191406 289.628906 C 241.191406 307.488281 255.71875 322.015625 273.582031 322.015625 C 291.441406 322.015625 305.972656 307.488281 305.972656 289.628906 C 305.972656 271.765625 291.441406 257.238281 273.582031 257.238281 Z M 273.582031 257.238281 " fill-opacity="1" fill-rule="nonzero"></path></g><path fill="#ffffff" d="M 245.816406 295.796875 C 244.96875 295.796875 244.277344 295.105469 244.277344 294.253906 L 244.277344 286.542969 C 244.277344 285.691406 244.96875 285 245.816406 285 C 246.667969 285 247.359375 285.691406 247.359375 286.542969 L 247.359375 294.253906 C 247.359375 295.105469 246.667969 295.796875 245.816406 295.796875 Z M 245.816406 295.796875 " fill-opacity="1" fill-rule="nonzero"></path><path fill="#ffffff" d="M 261.242188 303.507812 C 260.847656 303.507812 260.453125 303.359375 260.148438 303.058594 C 259.546875 302.457031 259.546875 301.480469 260.148438 300.878906 L 266.320312 294.707031 C 266.921875 294.105469 267.898438 294.105469 268.5 294.707031 C 269.101562 295.308594 269.101562 296.289062 268.5 296.890625 L 262.332031 303.058594 C 262.03125 303.359375 261.636719 303.507812 261.242188 303.507812 Z M 261.242188 303.507812 " fill-opacity="1" fill-rule="nonzero"></path><path fill="#ffffff" d="M 276.664062 318.933594 L 268.953125 318.933594 C 268.101562 318.933594 267.410156 318.242188 267.410156 317.390625 C 267.410156 316.539062 268.101562 315.847656 268.953125 315.847656 L 276.664062 315.847656 C 277.515625 315.847656 278.207031 316.539062 278.207031 317.390625 C 278.207031 318.242188 277.515625 318.933594 276.664062 318.933594 Z M 276.664062 318.933594 " fill-opacity="1" fill-rule="nonzero"></path><path fill="#ffffff" d="M 253.53125 298.882812 C 253.261719 298.882812 252.988281 298.8125 252.738281 298.664062 C 252.007812 298.222656 251.773438 297.277344 252.210938 296.546875 L 256.835938 288.835938 C 257.277344 288.101562 258.222656 287.867188 258.953125 288.308594 C 259.683594 288.746094 259.917969 289.691406 259.480469 290.421875 L 254.851562 298.136719 C 254.5625 298.613281 254.050781 298.882812 253.53125 298.882812 Z M 253.53125 298.882812 " fill-opacity="1" fill-rule="nonzero"></path><path fill="#ffffff" d="M 265.867188 311.21875 C 265.34375 311.21875 264.835938 310.957031 264.546875 310.472656 C 264.109375 309.738281 264.34375 308.792969 265.074219 308.355469 L 272.785156 303.726562 C 273.515625 303.289062 274.464844 303.527344 274.902344 304.253906 C 275.339844 304.988281 275.101562 305.933594 274.375 306.371094 L 266.660156 311 C 266.414062 311.148438 266.140625 311.21875 265.867188 311.21875 Z M 265.867188 311.21875 " fill-opacity="1" fill-rule="nonzero"></path><path fill="#ffffff" d="M 301.34375 294.253906 C 300.492188 294.253906 299.800781 293.5625 299.800781 292.710938 L 299.800781 285 C 299.800781 284.148438 300.492188 283.457031 301.34375 283.457031 C 302.195312 283.457031 302.886719 284.148438 302.886719 285 L 302.886719 292.710938 C 302.886719 293.5625 302.195312 294.253906 301.34375 294.253906 Z M 301.34375 294.253906 " fill-opacity="1" fill-rule="nonzero"></path><path fill="#ffffff" d="M 279.75 285 C 279.355469 285 278.960938 284.847656 278.660156 284.550781 C 278.058594 283.949219 278.058594 282.96875 278.660156 282.367188 L 284.828125 276.199219 C 285.429688 275.597656 286.40625 275.597656 287.007812 276.199219 C 287.609375 276.800781 287.609375 277.777344 287.007812 278.378906 L 280.839844 284.550781 C 280.539062 284.847656 280.144531 285 279.75 285 Z M 279.75 285 " fill-opacity="1" fill-rule="nonzero"></path><path fill="#ffffff" d="M 278.207031 263.40625 L 270.496094 263.40625 C 269.644531 263.40625 268.953125 262.714844 268.953125 261.863281 C 268.953125 261.011719 269.644531 260.320312 270.496094 260.320312 L 278.207031 260.320312 C 279.058594 260.320312 279.75 261.011719 279.75 261.863281 C 279.75 262.71875 279.058594 263.40625 278.207031 263.40625 Z M 278.207031 263.40625 " fill-opacity="1" fill-rule="nonzero"></path><path fill="#ffffff" d="M 289.003906 291.167969 C 288.738281 291.167969 288.460938 291.097656 288.210938 290.949219 C 287.480469 290.511719 287.246094 289.566406 287.683594 288.835938 L 292.3125 281.121094 C 292.75 280.390625 293.695312 280.15625 294.429688 280.59375 C 295.160156 281.035156 295.394531 281.980469 294.957031 282.710938 L 290.328125 290.421875 C 290.039062 290.902344 289.527344 291.167969 289.003906 291.167969 Z M 289.003906 291.167969 " fill-opacity="1" fill-rule="nonzero"></path><path fill="#ffffff" d="M 273.582031 275.746094 C 273.054688 275.746094 272.546875 275.480469 272.257812 274.996094 C 271.820312 274.265625 272.058594 273.316406 272.785156 272.878906 L 280.496094 268.253906 C 281.226562 267.8125 282.175781 268.050781 282.613281 268.78125 C 283.050781 269.511719 282.8125 270.457031 282.085938 270.898438 L 274.375 275.523438 C 274.128906 275.675781 273.851562 275.746094 273.582031 275.746094 Z M 273.582031 275.746094 " fill-opacity="1" fill-rule="nonzero"></path><g clip-path="url(#aa16ff3b5f)"><path fill="#ffffff" d="M 273.582031 325.101562 C 253.980469 325.101562 238.105469 309.117188 238.105469 289.628906 C 238.105469 270.136719 253.980469 254.152344 273.582031 254.152344 C 293.179688 254.152344 309.054688 270.027344 309.054688 289.628906 C 309.054688 309.226562 293.070312 325.101562 273.582031 325.101562 Z M 273.582031 256.34375 C 255.1875 256.34375 240.296875 271.234375 240.296875 289.628906 C 240.296875 308.023438 255.1875 322.914062 273.582031 322.914062 C 291.976562 322.914062 306.867188 308.023438 306.867188 289.628906 C 306.867188 271.234375 291.867188 256.34375 273.582031 256.34375 Z M 273.582031 256.34375 " fill-opacity="1" fill-rule="nonzero"></path></g><g clip-path="url(#2c1d7355d4)"><g clip-path="url(#560b1fb709)"><path fill="#1b7cc4" d="M 64.976562 156.96875 L 135.832031 156.96875 L 135.832031 227.824219 L 64.976562 227.824219 Z M 64.976562 156.96875 " fill-opacity="1" fill-rule="nonzero"></path></g></g><g clip-path="url(#6280624407)"><path fill="#ffffff" d="M 134.382812 193.988281 C 114.824219 193.988281 98.910156 178.074219 98.910156 158.511719 C 98.910156 157.660156 99.597656 156.96875 100.449219 156.96875 C 101.300781 156.96875 101.992188 157.660156 101.992188 158.511719 C 101.992188 176.371094 116.523438 190.902344 134.382812 190.902344 C 135.234375 190.902344 135.925781 191.59375 135.925781 192.445312 C 135.925781 193.296875 135.234375 193.988281 134.382812 193.988281 Z M 134.382812 193.988281 " fill-opacity="1" fill-rule="nonzero"></path></g><g clip-path="url(#76d0cf2012)"><path fill="#ffffff" d="M 100.449219 227.917969 C 99.597656 227.917969 98.910156 227.226562 98.910156 226.375 C 98.910156 208.515625 84.378906 193.988281 66.519531 193.988281 C 65.667969 193.988281 64.976562 193.296875 64.976562 192.445312 C 64.976562 191.59375 65.667969 190.902344 66.519531 190.902344 C 86.078125 190.902344 101.992188 206.816406 101.992188 226.375 C 101.992188 227.226562 101.300781 227.917969 100.449219 227.917969 Z M 100.449219 227.917969 " fill-opacity="1" fill-rule="nonzero"></path></g><g clip-path="url(#7611d17818)"><path fill="#ffffff" d="M 100.449219 227.917969 C 80.890625 227.917969 64.976562 212.003906 64.976562 192.445312 C 64.976562 172.882812 80.890625 156.96875 100.449219 156.96875 C 120.011719 156.96875 135.925781 172.882812 135.925781 192.445312 C 135.925781 212.003906 120.011719 227.917969 100.449219 227.917969 Z M 100.449219 160.054688 C 82.589844 160.054688 68.0625 174.582031 68.0625 192.445312 C 68.0625 210.304688 82.589844 224.835938 100.449219 224.835938 C 118.3125 224.835938 132.839844 210.304688 132.839844 192.445312 C 132.839844 174.582031 118.3125 160.054688 100.449219 160.054688 Z M 100.449219 160.054688 " fill-opacity="1" fill-rule="nonzero"></path></g><path fill="#ffffff" d="M 72.6875 198.613281 C 71.835938 198.613281 71.144531 197.921875 71.144531 197.070312 L 71.144531 189.359375 C 71.144531 188.507812 71.835938 187.816406 72.6875 187.816406 C 73.539062 187.816406 74.230469 188.507812 74.230469 189.359375 L 74.230469 197.070312 C 74.230469 197.921875 73.539062 198.613281 72.6875 198.613281 Z M 72.6875 198.613281 " fill-opacity="1" fill-rule="nonzero"></path><path fill="#ffffff" d="M 88.113281 206.324219 C 87.71875 206.324219 87.320312 206.175781 87.019531 205.875 C 86.417969 205.273438 86.417969 204.296875 87.019531 203.695312 L 93.1875 197.523438 C 93.789062 196.921875 94.769531 196.921875 95.371094 197.523438 C 95.972656 198.125 95.972656 199.105469 95.371094 199.707031 L 89.199219 205.875 C 88.902344 206.175781 88.507812 206.324219 88.113281 206.324219 Z M 88.113281 206.324219 " fill-opacity="1" fill-rule="nonzero"></path><path fill="#ffffff" d="M 103.535156 221.75 L 95.824219 221.75 C 94.972656 221.75 94.28125 221.058594 94.28125 220.207031 C 94.28125 219.355469 94.972656 218.664062 95.824219 218.664062 L 103.535156 218.664062 C 104.386719 218.664062 105.078125 219.355469 105.078125 220.207031 C 105.078125 221.058594 104.386719 221.75 103.535156 221.75 Z M 103.535156 221.75 " fill-opacity="1" fill-rule="nonzero"></path><path fill="#ffffff" d="M 80.398438 201.699219 C 80.132812 201.699219 79.855469 201.628906 79.605469 201.480469 C 78.875 201.042969 78.640625 200.09375 79.078125 199.363281 L 83.707031 191.652344 C 84.148438 190.921875 85.09375 190.6875 85.824219 191.125 C 86.554688 191.5625 86.789062 192.507812 86.351562 193.242188 L 81.722656 200.953125 C 81.433594 201.429688 80.921875 201.699219 80.398438 201.699219 Z M 80.398438 201.699219 " fill-opacity="1" fill-rule="nonzero"></path><path fill="#ffffff" d="M 92.738281 214.039062 C 92.214844 214.039062 91.707031 213.773438 91.414062 213.289062 C 90.976562 212.558594 91.214844 211.609375 91.941406 211.171875 L 99.65625 206.542969 C 100.386719 206.105469 101.332031 206.34375 101.769531 207.074219 C 102.210938 207.804688 101.972656 208.75 101.242188 209.1875 L 93.53125 213.816406 C 93.285156 213.964844 93.011719 214.039062 92.738281 214.039062 Z M 92.738281 214.039062 " fill-opacity="1" fill-rule="nonzero"></path><path fill="#ffffff" d="M 128.214844 197.070312 C 127.363281 197.070312 126.671875 196.378906 126.671875 195.527344 L 126.671875 187.816406 C 126.671875 186.964844 127.363281 186.273438 128.214844 186.273438 C 129.066406 186.273438 129.757812 186.964844 129.757812 187.816406 L 129.757812 195.527344 C 129.757812 196.378906 129.066406 197.070312 128.214844 197.070312 Z M 128.214844 197.070312 " fill-opacity="1" fill-rule="nonzero"></path><path fill="#ffffff" d="M 106.621094 187.816406 C 106.226562 187.816406 105.832031 187.667969 105.527344 187.367188 C 104.925781 186.765625 104.925781 185.789062 105.527344 185.1875 L 111.699219 179.015625 C 112.300781 178.414062 113.277344 178.414062 113.878906 179.015625 C 114.480469 179.617188 114.480469 180.597656 113.878906 181.199219 L 107.710938 187.367188 C 107.410156 187.667969 107.015625 187.816406 106.621094 187.816406 Z M 106.621094 187.816406 " fill-opacity="1" fill-rule="nonzero"></path><path fill="#ffffff" d="M 105.078125 166.222656 L 97.367188 166.222656 C 96.515625 166.222656 95.824219 165.53125 95.824219 164.679688 C 95.824219 163.832031 96.515625 163.140625 97.367188 163.140625 L 105.078125 163.140625 C 105.929688 163.140625 106.621094 163.828125 106.621094 164.679688 C 106.621094 165.535156 105.929688 166.222656 105.078125 166.222656 Z M 105.078125 166.222656 " fill-opacity="1" fill-rule="nonzero"></path><path fill="#ffffff" d="M 115.875 193.988281 C 115.605469 193.988281 115.332031 193.914062 115.082031 193.769531 C 114.351562 193.328125 114.117188 192.382812 114.554688 191.652344 L 119.179688 183.941406 C 119.621094 183.207031 120.5625 182.972656 121.296875 183.414062 C 122.027344 183.851562 122.261719 184.796875 121.824219 185.527344 L 117.199219 193.242188 C 116.90625 193.71875 116.394531 193.988281 115.875 193.988281 Z M 115.875 193.988281 " fill-opacity="1" fill-rule="nonzero"></path><path fill="#ffffff" d="M 100.449219 178.5625 C 99.925781 178.5625 99.417969 178.296875 99.128906 177.8125 C 98.6875 177.082031 98.925781 176.136719 99.65625 175.695312 L 107.367188 171.070312 C 108.097656 170.628906 109.046875 170.871094 109.484375 171.597656 C 109.921875 172.328125 109.683594 173.277344 108.957031 173.714844 L 101.242188 178.339844 C 100.996094 178.492188 100.722656 178.5625 100.449219 178.5625 Z M 100.449219 178.5625 " fill-opacity="1" fill-rule="nonzero"></path><g clip-path="url(#cad917d78f)"><path fill="#ffffff" d="M 100.449219 227.917969 C 80.851562 227.917969 64.976562 211.933594 64.976562 192.445312 C 64.976562 172.957031 80.851562 156.96875 100.449219 156.96875 C 120.050781 156.96875 135.925781 172.847656 135.925781 192.445312 C 135.925781 212.042969 119.941406 227.917969 100.449219 227.917969 Z M 100.449219 159.160156 C 82.054688 159.160156 67.164062 174.050781 67.164062 192.445312 C 67.164062 210.839844 82.054688 225.730469 100.449219 225.730469 C 118.84375 225.730469 133.734375 210.839844 133.734375 192.445312 C 133.734375 174.050781 118.734375 159.160156 100.449219 159.160156 Z M 100.449219 159.160156 " fill-opacity="1" fill-rule="nonzero"></path></g><g clip-path="url(#21c5c804c7)"><g clip-path="url(#5c0eadf1aa)"><path fill="#1b7cc4" d="M 238.105469 156.96875 L 308.960938 156.96875 L 308.960938 227.824219 L 238.105469 227.824219 Z M 238.105469 156.96875 " fill-opacity="1" fill-rule="nonzero"></path></g></g><g clip-path="url(#9df19cf6d0)"><path fill="#ffffff" d="M 307.511719 193.988281 C 287.953125 193.988281 272.039062 178.074219 272.039062 158.511719 C 272.039062 157.660156 272.730469 156.96875 273.582031 156.96875 C 274.433594 156.96875 275.125 157.660156 275.125 158.511719 C 275.125 176.371094 289.652344 190.902344 307.511719 190.902344 C 308.363281 190.902344 309.054688 191.59375 309.054688 192.445312 C 309.054688 193.296875 308.363281 193.988281 307.511719 193.988281 Z M 307.511719 193.988281 " fill-opacity="1" fill-rule="nonzero"></path></g><g clip-path="url(#e8070d83b5)"><path fill="#ffffff" d="M 273.582031 227.917969 C 272.730469 227.917969 272.039062 227.226562 272.039062 226.375 C 272.039062 208.515625 257.507812 193.988281 239.648438 193.988281 C 238.796875 193.988281 238.105469 193.296875 238.105469 192.445312 C 238.105469 191.59375 238.796875 190.902344 239.648438 190.902344 C 259.210938 190.902344 275.125 206.816406 275.125 226.375 C 275.125 227.226562 274.433594 227.917969 273.582031 227.917969 Z M 273.582031 227.917969 " fill-opacity="1" fill-rule="nonzero"></path></g><g clip-path="url(#c11d04fc6f)"><path fill="#ffffff" d="M 273.582031 227.917969 C 254.019531 227.917969 238.105469 212.003906 238.105469 192.445312 C 238.105469 172.882812 254.019531 156.96875 273.582031 156.96875 C 293.140625 156.96875 309.054688 172.882812 309.054688 192.445312 C 309.054688 212.003906 293.140625 227.917969 273.582031 227.917969 Z M 273.582031 160.054688 C 255.71875 160.054688 241.191406 174.582031 241.191406 192.445312 C 241.191406 210.304688 255.71875 224.835938 273.582031 224.835938 C 291.441406 224.835938 305.972656 210.304688 305.972656 192.445312 C 305.972656 174.582031 291.441406 160.054688 273.582031 160.054688 Z M 273.582031 160.054688 " fill-opacity="1" fill-rule="nonzero"></path></g><path fill="#ffffff" d="M 245.816406 198.613281 C 244.96875 198.613281 244.277344 197.921875 244.277344 197.070312 L 244.277344 189.359375 C 244.277344 188.507812 244.96875 187.816406 245.816406 187.816406 C 246.667969 187.816406 247.359375 188.507812 247.359375 189.359375 L 247.359375 197.070312 C 247.359375 197.921875 246.667969 198.613281 245.816406 198.613281 Z M 245.816406 198.613281 " fill-opacity="1" fill-rule="nonzero"></path><path fill="#ffffff" d="M 261.242188 206.324219 C 260.847656 206.324219 260.453125 206.175781 260.148438 205.875 C 259.546875 205.273438 259.546875 204.296875 260.148438 203.695312 L 266.320312 197.523438 C 266.921875 196.921875 267.898438 196.921875 268.5 197.523438 C 269.101562 198.125 269.101562 199.105469 268.5 199.707031 L 262.332031 205.875 C 262.03125 206.175781 261.636719 206.324219 261.242188 206.324219 Z M 261.242188 206.324219 " fill-opacity="1" fill-rule="nonzero"></path><path fill="#ffffff" d="M 276.664062 221.75 L 268.953125 221.75 C 268.101562 221.75 267.410156 221.058594 267.410156 220.207031 C 267.410156 219.355469 268.101562 218.664062 268.953125 218.664062 L 276.664062 218.664062 C 277.515625 218.664062 278.207031 219.355469 278.207031 220.207031 C 278.207031 221.058594 277.515625 221.75 276.664062 221.75 Z M 276.664062 221.75 " fill-opacity="1" fill-rule="nonzero"></path><path fill="#ffffff" d="M 253.53125 201.699219 C 253.261719 201.699219 252.988281 201.628906 252.738281 201.480469 C 252.007812 201.042969 251.773438 200.09375 252.210938 199.363281 L 256.835938 191.652344 C 257.277344 190.921875 258.222656 190.6875 258.953125 191.125 C 259.683594 191.5625 259.917969 192.507812 259.480469 193.242188 L 254.851562 200.953125 C 254.5625 201.429688 254.050781 201.699219 253.53125 201.699219 Z M 253.53125 201.699219 " fill-opacity="1" fill-rule="nonzero"></path><path fill="#ffffff" d="M 265.867188 214.039062 C 265.34375 214.039062 264.835938 213.773438 264.546875 213.289062 C 264.109375 212.558594 264.34375 211.609375 265.074219 211.171875 L 272.785156 206.542969 C 273.515625 206.105469 274.464844 206.34375 274.902344 207.074219 C 275.339844 207.804688 275.101562 208.75 274.375 209.1875 L 266.660156 213.816406 C 266.414062 213.964844 266.140625 214.039062 265.867188 214.039062 Z M 265.867188 214.039062 " fill-opacity="1" fill-rule="nonzero"></path><path fill="#ffffff" d="M 301.34375 197.070312 C 300.492188 197.070312 299.800781 196.378906 299.800781 195.527344 L 299.800781 187.816406 C 299.800781 186.964844 300.492188 186.273438 301.34375 186.273438 C 302.195312 186.273438 302.886719 186.964844 302.886719 187.816406 L 302.886719 195.527344 C 302.886719 196.378906 302.195312 197.070312 301.34375 197.070312 Z M 301.34375 197.070312 " fill-opacity="1" fill-rule="nonzero"></path><path fill="#ffffff" d="M 279.75 187.816406 C 279.355469 187.816406 278.960938 187.667969 278.660156 187.367188 C 278.058594 186.765625 278.058594 185.789062 278.660156 185.1875 L 284.828125 179.015625 C 285.429688 178.414062 286.40625 178.414062 287.007812 179.015625 C 287.609375 179.617188 287.609375 180.597656 287.007812 181.199219 L 280.839844 187.367188 C 280.539062 187.667969 280.144531 187.816406 279.75 187.816406 Z M 279.75 187.816406 " fill-opacity="1" fill-rule="nonzero"></path><path fill="#ffffff" d="M 278.207031 166.222656 L 270.496094 166.222656 C 269.644531 166.222656 268.953125 165.53125 268.953125 164.679688 C 268.953125 163.832031 269.644531 163.140625 270.496094 163.140625 L 278.207031 163.140625 C 279.058594 163.140625 279.75 163.828125 279.75 164.679688 C 279.75 165.535156 279.058594 166.222656 278.207031 166.222656 Z M 278.207031 166.222656 " fill-opacity="1" fill-rule="nonzero"></path><path fill="#ffffff" d="M 289.003906 193.988281 C 288.738281 193.988281 288.460938 193.914062 288.210938 193.769531 C 287.480469 193.328125 287.246094 192.382812 287.683594 191.652344 L 292.3125 183.941406 C 292.75 183.207031 293.695312 182.972656 294.429688 183.414062 C 295.160156 183.851562 295.394531 184.796875 294.957031 185.527344 L 290.328125 193.242188 C 290.039062 193.71875 289.527344 193.988281 289.003906 193.988281 Z M 289.003906 193.988281 " fill-opacity="1" fill-rule="nonzero"></path><path fill="#ffffff" d="M 273.582031 178.5625 C 273.054688 178.5625 272.546875 178.296875 272.257812 177.8125 C 271.820312 177.082031 272.058594 176.136719 272.785156 175.695312 L 280.496094 171.070312 C 281.226562 170.628906 282.175781 170.871094 282.613281 171.597656 C 283.050781 172.328125 282.8125 173.277344 282.085938 173.714844 L 274.375 178.339844 C 274.128906 178.492188 273.851562 178.5625 273.582031 178.5625 Z M 273.582031 178.5625 " fill-opacity="1" fill-rule="nonzero"></path><g clip-path="url(#7d7b259e6d)"><path fill="#ffffff" d="M 273.582031 227.917969 C 253.980469 227.917969 238.105469 211.933594 238.105469 192.445312 C 238.105469 172.957031 253.980469 156.96875 273.582031 156.96875 C 293.179688 156.96875 309.054688 172.847656 309.054688 192.445312 C 309.054688 212.042969 293.070312 227.917969 273.582031 227.917969 Z M 273.582031 159.160156 C 255.1875 159.160156 240.296875 174.050781 240.296875 192.445312 C 240.296875 210.839844 255.1875 225.730469 273.582031 225.730469 C 291.976562 225.730469 306.867188 210.839844 306.867188 192.445312 C 306.867188 174.050781 291.867188 159.160156 273.582031 159.160156 Z M 273.582031 159.160156 " fill-opacity="1" fill-rule="nonzero"></path></g><g clip-path="url(#7057f3262b)"><g clip-path="url(#c738bc7c5b)"><path fill="#1b7cc4" d="M 238.105469 58.808594 L 308.960938 58.808594 L 308.960938 129.664062 L 238.105469 129.664062 Z M 238.105469 58.808594 " fill-opacity="1" fill-rule="nonzero"></path></g></g><g clip-path="url(#26680e8863)"><path fill="#ffffff" d="M 307.511719 95.824219 C 287.953125 95.824219 272.039062 79.910156 272.039062 60.351562 C 272.039062 59.5 272.730469 58.808594 273.582031 58.808594 C 274.433594 58.808594 275.125 59.5 275.125 60.351562 C 275.125 78.210938 289.652344 92.742188 307.511719 92.742188 C 308.363281 92.742188 309.054688 93.429688 309.054688 94.28125 C 309.054688 95.132812 308.363281 95.824219 307.511719 95.824219 Z M 307.511719 95.824219 " fill-opacity="1" fill-rule="nonzero"></path></g><g clip-path="url(#bc350d6cc4)"><path fill="#ffffff" d="M 273.582031 129.757812 C 272.730469 129.757812 272.039062 129.066406 272.039062 128.214844 C 272.039062 110.355469 257.507812 95.824219 239.648438 95.824219 C 238.796875 95.824219 238.105469 95.132812 238.105469 94.28125 C 238.105469 93.429688 238.796875 92.742188 239.648438 92.742188 C 259.210938 92.742188 275.125 108.65625 275.125 128.214844 C 275.125 129.066406 274.433594 129.757812 273.582031 129.757812 Z M 273.582031 129.757812 " fill-opacity="1" fill-rule="nonzero"></path></g><g clip-path="url(#a506b00556)"><path fill="#ffffff" d="M 273.582031 129.757812 C 254.019531 129.757812 238.105469 113.84375 238.105469 94.28125 C 238.105469 74.722656 254.019531 58.808594 273.582031 58.808594 C 293.140625 58.808594 309.054688 74.722656 309.054688 94.28125 C 309.054688 113.84375 293.140625 129.757812 273.582031 129.757812 Z M 273.582031 61.894531 C 255.71875 61.894531 241.191406 76.421875 241.191406 94.28125 C 241.191406 112.144531 255.71875 126.671875 273.582031 126.671875 C 291.441406 126.671875 305.972656 112.144531 305.972656 94.28125 C 305.972656 76.421875 291.441406 61.894531 273.582031 61.894531 Z M 273.582031 61.894531 " fill-opacity="1" fill-rule="nonzero"></path></g><path fill="#ffffff" d="M 245.816406 100.453125 C 244.96875 100.453125 244.277344 99.761719 244.277344 98.910156 L 244.277344 91.199219 C 244.277344 90.347656 244.96875 89.65625 245.816406 89.65625 C 246.667969 89.65625 247.359375 90.347656 247.359375 91.199219 L 247.359375 98.910156 C 247.359375 99.761719 246.667969 100.453125 245.816406 100.453125 Z M 245.816406 100.453125 " fill-opacity="1" fill-rule="nonzero"></path><path fill="#ffffff" d="M 261.242188 108.164062 C 260.847656 108.164062 260.453125 108.011719 260.148438 107.714844 C 259.546875 107.113281 259.546875 106.132812 260.148438 105.53125 L 266.320312 99.363281 C 266.921875 98.761719 267.898438 98.761719 268.5 99.363281 C 269.101562 99.964844 269.101562 100.941406 268.5 101.542969 L 262.332031 107.714844 C 262.03125 108.011719 261.636719 108.164062 261.242188 108.164062 Z M 261.242188 108.164062 " fill-opacity="1" fill-rule="nonzero"></path><path fill="#ffffff" d="M 276.664062 123.589844 L 268.953125 123.589844 C 268.101562 123.589844 267.410156 122.898438 267.410156 122.046875 C 267.410156 121.195312 268.101562 120.503906 268.953125 120.503906 L 276.664062 120.503906 C 277.515625 120.503906 278.207031 121.195312 278.207031 122.046875 C 278.207031 122.898438 277.515625 123.589844 276.664062 123.589844 Z M 276.664062 123.589844 " fill-opacity="1" fill-rule="nonzero"></path><path fill="#ffffff" d="M 253.53125 103.535156 C 253.261719 103.535156 252.988281 103.464844 252.738281 103.316406 C 252.007812 102.878906 251.773438 101.933594 252.210938 101.203125 L 256.835938 93.488281 C 257.277344 92.757812 258.222656 92.523438 258.953125 92.960938 C 259.683594 93.402344 259.917969 94.347656 259.480469 95.078125 L 254.851562 102.789062 C 254.5625 103.269531 254.050781 103.535156 253.53125 103.535156 Z M 253.53125 103.535156 " fill-opacity="1" fill-rule="nonzero"></path><path fill="#ffffff" d="M 265.867188 115.875 C 265.34375 115.875 264.835938 115.609375 264.546875 115.125 C 264.109375 114.394531 264.34375 113.449219 265.074219 113.011719 L 272.785156 108.382812 C 273.515625 107.945312 274.464844 108.183594 274.902344 108.910156 C 275.339844 109.640625 275.101562 110.589844 274.375 111.027344 L 266.660156 115.652344 C 266.414062 115.804688 266.140625 115.875 265.867188 115.875 Z M 265.867188 115.875 " fill-opacity="1" fill-rule="nonzero"></path><path fill="#ffffff" d="M 301.34375 98.910156 C 300.492188 98.910156 299.800781 98.21875 299.800781 97.367188 L 299.800781 89.65625 C 299.800781 88.804688 300.492188 88.113281 301.34375 88.113281 C 302.195312 88.113281 302.886719 88.804688 302.886719 89.65625 L 302.886719 97.367188 C 302.886719 98.21875 302.195312 98.910156 301.34375 98.910156 Z M 301.34375 98.910156 " fill-opacity="1" fill-rule="nonzero"></path><path fill="#ffffff" d="M 279.75 89.65625 C 279.355469 89.65625 278.960938 89.503906 278.660156 89.207031 C 278.058594 88.605469 278.058594 87.625 278.660156 87.023438 L 284.828125 80.855469 C 285.429688 80.253906 286.40625 80.253906 287.007812 80.855469 C 287.609375 81.457031 287.609375 82.433594 287.007812 83.035156 L 280.839844 89.207031 C 280.539062 89.503906 280.144531 89.65625 279.75 89.65625 Z M 279.75 89.65625 " fill-opacity="1" fill-rule="nonzero"></path><path fill="#ffffff" d="M 278.207031 68.0625 L 270.496094 68.0625 C 269.644531 68.0625 268.953125 67.371094 268.953125 66.519531 C 268.953125 65.667969 269.644531 64.976562 270.496094 64.976562 L 278.207031 64.976562 C 279.058594 64.976562 279.75 65.664062 279.75 66.519531 C 279.75 67.375 279.058594 68.0625 278.207031 68.0625 Z M 278.207031 68.0625 " fill-opacity="1" fill-rule="nonzero"></path><path fill="#ffffff" d="M 289.003906 95.824219 C 288.738281 95.824219 288.460938 95.753906 288.210938 95.605469 C 287.480469 95.167969 287.246094 94.222656 287.683594 93.488281 L 292.3125 85.777344 C 292.75 85.046875 293.695312 84.8125 294.429688 85.25 C 295.160156 85.6875 295.394531 86.636719 294.957031 87.367188 L 290.328125 95.078125 C 290.039062 95.558594 289.527344 95.824219 289.003906 95.824219 Z M 289.003906 95.824219 " fill-opacity="1" fill-rule="nonzero"></path><path fill="#ffffff" d="M 273.582031 80.402344 C 273.054688 80.402344 272.546875 80.136719 272.257812 79.652344 C 271.820312 78.921875 272.058594 77.972656 272.785156 77.535156 L 280.496094 72.910156 C 281.226562 72.46875 282.175781 72.707031 282.613281 73.4375 C 283.050781 74.167969 282.8125 75.113281 282.085938 75.550781 L 274.375 80.179688 C 274.128906 80.332031 273.851562 80.402344 273.582031 80.402344 Z M 273.582031 80.402344 " fill-opacity="1" fill-rule="nonzero"></path><g clip-path="url(#05446c5d15)"><path fill="#ffffff" d="M 273.582031 129.757812 C 253.980469 129.757812 238.105469 113.773438 238.105469 94.28125 C 238.105469 74.792969 253.980469 58.808594 273.582031 58.808594 C 293.179688 58.808594 309.054688 74.683594 309.054688 94.28125 C 309.054688 113.882812 293.070312 129.757812 273.582031 129.757812 Z M 273.582031 60.996094 C 255.1875 60.996094 240.296875 75.886719 240.296875 94.28125 C 240.296875 112.675781 255.1875 127.566406 273.582031 127.566406 C 291.976562 127.566406 306.867188 112.675781 306.867188 94.28125 C 306.867188 75.886719 291.867188 60.996094 273.582031 60.996094 Z M 273.582031 60.996094 " fill-opacity="1" fill-rule="nonzero"></path></g><g clip-path="url(#172f4a305b)"><g clip-path="url(#01dd6b4a9e)"><path fill="#1b7cc4" d="M 64.976562 58.808594 L 135.832031 58.808594 L 135.832031 129.664062 L 64.976562 129.664062 Z M 64.976562 58.808594 " fill-opacity="1" fill-rule="nonzero"></path></g></g><g clip-path="url(#7c811f71e6)"><path fill="#ffffff" d="M 134.382812 95.824219 C 114.824219 95.824219 98.910156 79.910156 98.910156 60.351562 C 98.910156 59.5 99.597656 58.808594 100.449219 58.808594 C 101.300781 58.808594 101.992188 59.5 101.992188 60.351562 C 101.992188 78.210938 116.523438 92.742188 134.382812 92.742188 C 135.234375 92.742188 135.925781 93.429688 135.925781 94.28125 C 135.925781 95.132812 135.234375 95.824219 134.382812 95.824219 Z M 134.382812 95.824219 " fill-opacity="1" fill-rule="nonzero"></path></g><g clip-path="url(#5b0570a4a2)"><path fill="#ffffff" d="M 100.449219 129.757812 C 99.597656 129.757812 98.910156 129.066406 98.910156 128.214844 C 98.910156 110.355469 84.378906 95.824219 66.519531 95.824219 C 65.667969 95.824219 64.976562 95.132812 64.976562 94.28125 C 64.976562 93.429688 65.667969 92.742188 66.519531 92.742188 C 86.078125 92.742188 101.992188 108.65625 101.992188 128.214844 C 101.992188 129.066406 101.300781 129.757812 100.449219 129.757812 Z M 100.449219 129.757812 " fill-opacity="1" fill-rule="nonzero"></path></g><g clip-path="url(#cb2ea510d9)"><path fill="#ffffff" d="M 100.449219 129.757812 C 80.890625 129.757812 64.976562 113.84375 64.976562 94.28125 C 64.976562 74.722656 80.890625 58.808594 100.449219 58.808594 C 120.011719 58.808594 135.925781 74.722656 135.925781 94.28125 C 135.925781 113.84375 120.011719 129.757812 100.449219 129.757812 Z M 100.449219 61.894531 C 82.589844 61.894531 68.0625 76.421875 68.0625 94.28125 C 68.0625 112.144531 82.589844 126.671875 100.449219 126.671875 C 118.3125 126.671875 132.839844 112.144531 132.839844 94.28125 C 132.839844 76.421875 118.3125 61.894531 100.449219 61.894531 Z M 100.449219 61.894531 " fill-opacity="1" fill-rule="nonzero"></path></g><path fill="#ffffff" d="M 72.6875 100.453125 C 71.835938 100.453125 71.144531 99.761719 71.144531 98.910156 L 71.144531 91.199219 C 71.144531 90.347656 71.835938 89.65625 72.6875 89.65625 C 73.539062 89.65625 74.230469 90.347656 74.230469 91.199219 L 74.230469 98.910156 C 74.230469 99.761719 73.539062 100.453125 72.6875 100.453125 Z M 72.6875 100.453125 " fill-opacity="1" fill-rule="nonzero"></path><path fill="#ffffff" d="M 88.113281 108.164062 C 87.71875 108.164062 87.320312 108.011719 87.019531 107.714844 C 86.417969 107.113281 86.417969 106.132812 87.019531 105.53125 L 93.1875 99.363281 C 93.789062 98.761719 94.769531 98.761719 95.371094 99.363281 C 95.972656 99.964844 95.972656 100.941406 95.371094 101.542969 L 89.199219 107.714844 C 88.902344 108.011719 88.507812 108.164062 88.113281 108.164062 Z M 88.113281 108.164062 " fill-opacity="1" fill-rule="nonzero"></path><path fill="#ffffff" d="M 103.535156 123.589844 L 95.824219 123.589844 C 94.972656 123.589844 94.28125 122.898438 94.28125 122.046875 C 94.28125 121.195312 94.972656 120.503906 95.824219 120.503906 L 103.535156 120.503906 C 104.386719 120.503906 105.078125 121.195312 105.078125 122.046875 C 105.078125 122.898438 104.386719 123.589844 103.535156 123.589844 Z M 103.535156 123.589844 " fill-opacity="1" fill-rule="nonzero"></path><path fill="#ffffff" d="M 80.398438 103.535156 C 80.132812 103.535156 79.855469 103.464844 79.605469 103.316406 C 78.875 102.878906 78.640625 101.933594 79.078125 101.203125 L 83.707031 93.488281 C 84.148438 92.757812 85.09375 92.523438 85.824219 92.960938 C 86.554688 93.402344 86.789062 94.347656 86.351562 95.078125 L 81.722656 102.789062 C 81.433594 103.269531 80.921875 103.535156 80.398438 103.535156 Z M 80.398438 103.535156 " fill-opacity="1" fill-rule="nonzero"></path><path fill="#ffffff" d="M 92.738281 115.875 C 92.214844 115.875 91.707031 115.609375 91.414062 115.125 C 90.976562 114.394531 91.214844 113.449219 91.941406 113.011719 L 99.65625 108.382812 C 100.386719 107.945312 101.332031 108.183594 101.769531 108.910156 C 102.210938 109.640625 101.972656 110.589844 101.242188 111.027344 L 93.53125 115.652344 C 93.285156 115.804688 93.011719 115.875 92.738281 115.875 Z M 92.738281 115.875 " fill-opacity="1" fill-rule="nonzero"></path><path fill="#ffffff" d="M 128.214844 98.910156 C 127.363281 98.910156 126.671875 98.21875 126.671875 97.367188 L 126.671875 89.65625 C 126.671875 88.804688 127.363281 88.113281 128.214844 88.113281 C 129.066406 88.113281 129.757812 88.804688 129.757812 89.65625 L 129.757812 97.367188 C 129.757812 98.21875 129.066406 98.910156 128.214844 98.910156 Z M 128.214844 98.910156 " fill-opacity="1" fill-rule="nonzero"></path><path fill="#ffffff" d="M 106.621094 89.65625 C 106.226562 89.65625 105.832031 89.503906 105.527344 89.207031 C 104.925781 88.605469 104.925781 87.625 105.527344 87.023438 L 111.699219 80.855469 C 112.300781 80.253906 113.277344 80.253906 113.878906 80.855469 C 114.480469 81.457031 114.480469 82.433594 113.878906 83.035156 L 107.710938 89.207031 C 107.410156 89.503906 107.015625 89.65625 106.621094 89.65625 Z M 106.621094 89.65625 " fill-opacity="1" fill-rule="nonzero"></path><path fill="#ffffff" d="M 105.078125 68.0625 L 97.367188 68.0625 C 96.515625 68.0625 95.824219 67.371094 95.824219 66.519531 C 95.824219 65.667969 96.515625 64.976562 97.367188 64.976562 L 105.078125 64.976562 C 105.929688 64.976562 106.621094 65.664062 106.621094 66.519531 C 106.621094 67.375 105.929688 68.0625 105.078125 68.0625 Z M 105.078125 68.0625 " fill-opacity="1" fill-rule="nonzero"></path><path fill="#ffffff" d="M 115.875 95.824219 C 115.605469 95.824219 115.332031 95.753906 115.082031 95.605469 C 114.351562 95.167969 114.117188 94.222656 114.554688 93.488281 L 119.179688 85.777344 C 119.621094 85.046875 120.5625 84.8125 121.296875 85.25 C 122.027344 85.6875 122.261719 86.636719 121.824219 87.367188 L 117.199219 95.078125 C 116.90625 95.558594 116.394531 95.824219 115.875 95.824219 Z M 115.875 95.824219 " fill-opacity="1" fill-rule="nonzero"></path><path fill="#ffffff" d="M 100.449219 80.402344 C 99.925781 80.402344 99.417969 80.136719 99.128906 79.652344 C 98.6875 78.921875 98.925781 77.972656 99.65625 77.535156 L 107.367188 72.910156 C 108.097656 72.46875 109.046875 72.707031 109.484375 73.4375 C 109.921875 74.167969 109.683594 75.113281 108.957031 75.550781 L 101.242188 80.179688 C 100.996094 80.332031 100.722656 80.402344 100.449219 80.402344 Z M 100.449219 80.402344 " fill-opacity="1" fill-rule="nonzero"></path><g clip-path="url(#5ed1a1e261)"><path fill="#ffffff" d="M 100.449219 129.757812 C 80.851562 129.757812 64.976562 113.773438 64.976562 94.28125 C 64.976562 74.792969 80.851562 58.808594 100.449219 58.808594 C 120.050781 58.808594 135.925781 74.683594 135.925781 94.28125 C 135.925781 113.882812 119.941406 129.757812 100.449219 129.757812 Z M 100.449219 60.996094 C 82.054688 60.996094 67.164062 75.886719 67.164062 94.28125 C 67.164062 112.675781 82.054688 127.566406 100.449219 127.566406 C 118.84375 127.566406 133.734375 112.675781 133.734375 94.28125 C 133.734375 75.886719 118.734375 60.996094 100.449219 60.996094 Z M 100.449219 60.996094 " fill-opacity="1" fill-rule="nonzero"></path></g></svg><style>@media (prefers-color-scheme: light) { :root { filter: none; } }
@media (prefers-color-scheme: dark) { :root { filter: none; } }
</style></svg>